<svg xmlns="http://www.w3.org/2000/svg" viewBox="0 0 512 512">
  <path fill="#512BD4" d="M384 96L384 0h-112c-26.51 0-48 21.49-48 48v288c0 26.51 21.49 48 48 48h192c26.51 0 48-21.49 48-48V128h-96C392.8 128 384 119.2 384 109.3V96zM176 352h-20.8c-8.836 0-16 7.164-16 16v32c0 8.836 7.164 16 16 16H176c8.836 0 16-7.164 16-16v-32C192 359.2 184.8 352 176 352zM176 224h-20.8c-8.836 0-16 7.164-16 16v32c0 8.836 7.164 16 16 16H176c8.836 0 16-7.164 16-16v-32C192 231.2 184.8 224 176 224zM176 96h-20.8c-8.836 0-16 7.164-16 16v32c0 8.836 7.164 16 16 16H176c8.836 0 16-7.164 16-16v-32C192 103.2 184.8 96 176 96zM96 96H24c-13.25 0-24 10.75-24 24v352c0 13.25 10.75 24 24 24h152c-6.246-7-10.37-16-11.83-25.75H32c-3.516 0-8.225-1.922-8.846-9.172c-.1719-2.094 .5312-5.719 3.422-9.25c2.91-3.555 7.9-5.578 13.42-5.578h126c-3.141-10-2-21.28 3.52-30.72c2.25-3.844 5.234-7.234 8.656-10.06L96 352V96z"/>
</svg>