<svg width="1070" height="236" viewBox="0 0 1070 236" fill="none" xmlns="http://www.w3.org/2000/svg">
<path d="M983.518 119.887C992.366 109.053 1004.08 105.697 1015.14 107.854C1019.74 104.063 1025.19 99.7288 1031.86 94.4648C1032.32 94.1063 1032.76 93.7414 1033.21 93.3813L1033.18 93.3683C1011.22 83.1742 988.19 88.6826 975.007 102.782C974.422 103.445 973.819 104.098 973.255 104.793C972.602 105.565 971.903 106.391 971.176 107.152C971.963 108.074 976.836 113.615 983.314 120.143C983.378 120.058 983.459 119.964 983.514 119.889L983.518 119.887Z" fill="#0075B1"/>
<path d="M971.249 107.104C971.15 107.212 971.313 107.033 971.235 107.14C954.266 85.9569 935.719 51.4611 963.361 21.4082C942.632 38.8101 925.307 67.8023 919.806 93.8685C907.331 152.873 937.891 186.847 964.969 203.482C937.635 180.713 945.584 138.242 971.251 107.103L971.249 107.104Z" fill="#7BC224"/>
<path d="M971.235 107.139L970.987 107.432C971.072 107.316 971.15 107.21 971.249 107.103C998.676 74.6777 1047.17 37.4024 1032.26 16.0773C1022.71 2.46182 1001.49 1.7922 988.963 5.76591C988.5 5.95327 988.014 6.15041 987.543 6.36547C978.62 10.305 970.48 15.2171 963.359 21.4066C935.717 51.4595 954.265 85.9553 971.233 107.139H971.235Z" fill="#D3DA00"/>
<path d="M1033.22 93.3813C1032.76 93.743 1032.32 94.1064 1031.86 94.4632C1025.19 99.7289 1019.74 104.063 1015.14 107.854C1075.35 119.444 1067.94 210.514 1001.62 213.624C992.943 214.047 984.189 212.229 978.767 210.382C979.536 210.681 980.671 211.081 981.348 211.317C1021.36 224.68 1057.84 204.494 1066.97 170.327C1075.54 138.299 1063.3 107.38 1033.22 93.383V93.3813Z" fill="#FF4D11"/>
<path d="M988.963 5.76591C1001.49 1.7922 1022.71 2.46182 1032.26 16.0773C1046.51 36.4379 1002.83 71.3899 975.008 102.78C988.192 88.681 1011.22 83.1726 1033.17 93.3667C1033.17 93.3667 1033.19 93.3667 1033.22 93.3781C1112.82 29.8183 1042.79 -16.7892 988.963 5.76265V5.76591Z" fill="#009CDB"/>
<path d="M971.375 156.526C971.346 156.478 971.311 156.433 971.311 156.433C960.598 137.431 962.481 119.827 971.354 107.235C971.412 107.308 971.497 107.401 971.597 107.518C971.408 107.284 971.276 107.142 971.25 107.129L971.235 107.142C971.235 107.142 971.25 107.129 971.25 107.106L971.235 107.129L971.215 107.142C945.6 138.246 937.651 180.638 964.904 203.425C965.278 203.663 965.664 203.914 966.036 204.169C968.072 205.38 972.349 207.824 976.735 209.583L976.75 209.596C954.413 200.456 961.163 174.439 971.375 156.527V156.526ZM971.217 107.127V107.14L971.25 107.104L971.217 107.127Z" fill="#009CDB"/>
<path d="M1022.25 152.379C1023.28 149.241 1023.92 144.652 1023.79 141.949C1024.03 145.219 1020.99 159.558 1008.47 163.37C995.093 167.455 981.209 157.655 978.436 145.369C975.79 149.479 973.117 153.595 971.375 156.524C984.404 174.108 1013.76 176.916 1022.25 152.378V152.379Z" fill="#FF4D11"/>
<path d="M978.428 145.38C976.276 136.794 977.776 127.089 983.319 120.145C977.066 113.858 972.379 108.476 971.346 107.272C962.481 119.852 960.601 137.455 971.302 156.41C971.302 156.41 971.346 156.478 971.375 156.526C973.117 153.596 975.79 149.492 978.428 145.38Z" fill="#0075B1"/>
<path d="M1020.97 109.266C1020.54 109.16 1020.09 109.03 1019.64 108.905C1019.31 108.818 1018.96 108.714 1018.61 108.629C1018.23 108.509 1017.83 108.427 1017.46 108.343C1016.69 108.176 1015.93 107.996 1015.14 107.854L1014.82 107.974C1014.82 107.974 1004.13 116.583 994.613 126.354C998.943 122.95 1004.74 121.535 1010.45 123.076C1015.44 124.404 1019.34 127.683 1021.62 131.856C1021.77 132.118 1021.9 132.387 1022.02 132.636C1022.09 132.797 1022.19 132.941 1022.25 133.094C1022.42 133.467 1022.55 133.835 1022.71 134.21C1023.57 136.564 1023.97 139.106 1023.81 141.704C1023.81 141.996 1023.81 142.301 1023.79 142.599C1023.81 145.352 1023.18 149.478 1022.25 152.376C1013.76 176.914 984.404 174.107 971.375 156.522C961.163 174.434 954.415 200.453 976.781 209.611C977.239 209.811 978.006 210.075 978.962 210.426C984.401 212.25 993.047 214.033 1001.62 213.622C1065.73 210.618 1074.79 125.464 1020.97 109.266H1020.97Z" fill="#FF7A00"/>
<path d="M994.663 126.307C1000.1 120.759 1005.92 115.456 1015.14 107.854C1004.08 105.697 992.366 109.053 983.519 119.887C983.464 119.964 983.382 120.057 983.319 120.142C986.025 122.864 989.041 125.775 992.205 128.614C992.961 127.773 993.787 126.991 994.665 126.305L994.663 126.307Z" fill="#FF4D11"/>
<path d="M992.231 128.615C989.011 125.759 985.978 122.818 983.263 120.071L983.304 120.133C977.7 127.017 976.277 136.794 978.43 145.382C981.859 140.61 987.731 133.361 991.318 129.738C991.597 129.326 991.903 128.972 992.231 128.617V128.615Z" fill="#FF4D11"/>
<path d="M1023.83 140.388C1023.85 141.973 1023.65 143.585 1023.24 145.181H1023.22V145.217C1020.65 154.82 1010.77 160.54 1001.15 157.968H1001.14H1001.12C991.485 155.387 985.763 145.473 988.334 135.857C988.932 133.568 989.969 131.535 991.299 129.746C987.721 133.369 981.857 140.61 978.426 145.378V145.369L978.407 145.378L978.426 145.39L978.436 145.367C981.209 157.653 995.092 167.455 1008.47 163.37C1020.34 159.747 1023.67 146.708 1023.79 142.563C1023.81 143.511 1023.74 144.626 1023.59 145.843C1023.96 143.344 1023.92 141.393 1023.83 140.386L1023.83 140.388Z" fill="#FF7A00"/>
<path d="M63.8562 194.643H63.3234C62.3459 199.132 59.7098 202.848 55.407 205.795C51.1042 208.743 45.4067 210.217 38.3114 210.217C32.8111 210.217 27.7132 209.173 23.0129 207.091C18.3093 205.008 14.2525 201.949 10.8392 197.912C7.42435 193.878 4.76381 188.864 2.8576 182.879C0.949765 176.893 -0.00170898 169.998 -0.00170898 162.192C-0.00170898 154.476 0.972574 147.625 2.9244 141.639C4.8746 135.652 7.62475 130.619 11.1732 126.54C14.7184 122.462 18.9756 119.379 23.9432 117.295C28.9091 115.213 34.4517 114.169 40.5728 114.169C48.9096 114.169 55.9593 116.007 61.7268 119.677C67.491 123.348 71.9698 128.457 75.1631 135.003L62.9243 142.169C61.1484 137.804 58.3999 134.265 54.6755 131.549C50.951 128.832 46.249 127.473 40.5744 127.473C33.2119 127.473 27.2913 129.832 22.8141 134.551C18.3337 139.269 16.0951 145.947 16.0951 154.582V169.806C16.0951 178.442 18.3337 185.119 22.8141 189.837C27.2913 194.555 33.2119 196.916 40.5744 196.916C43.5005 196.916 46.2963 196.538 48.9552 195.779C51.6174 195.021 53.9439 193.908 55.9397 192.436C57.9356 190.964 59.5322 189.136 60.7281 186.952C61.9256 184.767 62.5235 182.204 62.5235 179.26V172.036H43.3669V159.132H77.0237V208.622H63.8529V194.645L63.8562 194.643Z" fill="white"/>
<path d="M94.186 208.62V139.443H108.686V152.746H109.353C110.325 149.201 112.365 146.094 115.472 143.433C118.576 140.773 122.875 139.443 128.376 139.443H132.235V153.411H126.515C120.747 153.411 116.337 154.342 113.277 156.205C110.218 158.067 108.686 160.817 108.686 164.454V208.62H94.186Z" fill="white"/>
<path d="M184.382 197.18H183.849C183.229 198.865 182.408 200.505 181.388 202.102C180.368 203.699 179.079 205.096 177.528 206.292C175.975 207.49 174.113 208.445 171.941 209.152C169.766 209.86 167.262 210.217 164.426 210.217C157.241 210.217 151.675 207.912 147.729 203.299C143.782 198.69 141.809 192.082 141.809 183.478V139.443H156.309V181.614C156.309 192.346 160.742 197.711 169.613 197.711C171.475 197.711 173.294 197.467 175.068 196.98C176.84 196.492 178.414 195.763 179.791 194.785C181.164 193.811 182.272 192.569 183.116 191.059C183.959 189.552 184.381 187.779 184.381 185.738V139.441H198.881V208.62H184.381V197.178L184.382 197.18Z" fill="white"/>
<path d="M247.173 197.711C252.229 197.711 256.263 196.093 259.28 192.856C262.292 189.62 263.803 185.34 263.803 180.019V168.046C263.803 162.725 262.292 158.447 259.28 155.209C256.263 151.972 252.229 150.354 247.173 150.354C242.737 150.354 239.012 151.441 235.998 153.613C232.982 155.788 231.475 158.647 231.475 162.194V185.875C231.475 189.423 232.982 192.283 235.998 194.456C239.012 196.629 242.737 197.714 247.173 197.714V197.711ZM216.975 139.441H231.477V150.884H232.142C233.647 146.716 236.11 143.5 239.525 141.239C242.939 138.977 246.951 137.846 251.564 137.846C260.345 137.846 267.13 141.019 271.919 147.358C276.708 153.699 279.103 162.59 279.103 174.032C279.103 185.474 276.708 194.365 271.919 200.706C267.128 207.047 260.345 210.217 251.564 210.217C246.951 210.217 242.939 209.064 239.525 206.758C236.11 204.453 233.647 201.26 232.142 197.18H231.477V235.228H216.975V139.443V139.441Z" fill="white"/>
<path d="M320.208 198.11C325.174 198.11 329.166 196.589 332.182 193.547C335.196 190.503 336.704 185.94 336.704 179.853V168.209C336.704 162.125 335.196 157.56 332.182 154.517C329.166 151.473 325.174 149.952 320.208 149.952C315.241 149.952 311.249 151.473 308.237 154.517C305.219 157.56 303.712 162.125 303.712 168.209V179.853C303.712 185.94 305.219 190.503 308.237 193.547C311.251 196.589 315.241 198.11 320.208 198.11ZM320.208 210.217C315.418 210.217 311.05 209.373 307.104 207.69C303.157 206.006 299.809 203.589 297.06 200.44C294.312 197.294 292.182 193.478 290.675 189C289.165 184.521 288.414 179.534 288.414 174.032C288.414 168.535 289.165 163.544 290.675 159.067C292.182 154.59 294.312 150.774 297.06 147.625C299.809 144.479 303.157 142.06 307.104 140.375C311.05 138.692 315.418 137.848 320.208 137.848C324.998 137.848 329.366 138.692 333.312 140.375C337.258 142.06 340.606 144.479 343.357 147.625C346.105 150.774 348.233 154.588 349.742 159.067C351.25 163.546 352.005 168.535 352.005 174.032C352.005 179.534 351.25 184.521 349.742 189C348.233 193.478 346.105 197.292 343.357 200.44C340.606 203.589 337.258 206.007 333.312 207.69C329.366 209.373 324.998 210.217 320.208 210.217Z" fill="white"/>
<path d="M381.536 195.717H407.345C411.247 195.717 414.308 194.699 416.524 192.657C418.74 190.619 419.849 187.691 419.849 183.877V179.355C419.849 175.54 418.74 172.614 416.524 170.573C414.307 168.535 411.247 167.515 407.345 167.515H381.536V195.717ZM381.536 155.009H404.818C408.542 155.009 411.423 154.056 413.464 152.148C415.504 150.243 416.524 147.514 416.524 143.968V139.71C416.524 136.163 415.504 133.438 413.464 131.528C411.423 129.622 408.541 128.669 404.818 128.669H381.536V155.01V155.009ZM366.503 115.764H407.61C415.327 115.764 421.379 117.939 425.77 122.282C430.161 126.629 432.355 132.439 432.355 139.709C432.355 143.168 431.866 146.118 430.892 148.555C429.915 150.994 428.675 152.992 427.166 154.541C425.657 156.094 423.927 157.247 421.979 158C420.027 158.754 418.121 159.22 416.258 159.398V160.196C418.121 160.286 420.183 160.727 422.445 161.526C424.706 162.324 426.813 163.588 428.763 165.317C430.713 167.046 432.355 169.265 433.685 171.969C435.016 174.675 435.681 177.979 435.681 181.88C435.681 185.604 435.083 189.109 433.885 192.388C432.688 195.671 431.026 198.508 428.896 200.903C426.769 203.298 424.24 205.183 421.314 206.558C418.388 207.935 415.195 208.619 411.736 208.619H366.503V115.762V115.764Z" fill="white"/>
<path d="M477.588 198.11C482.554 198.11 486.545 196.589 489.561 193.547C492.575 190.503 494.084 185.94 494.084 179.853V168.209C494.084 162.125 492.575 157.56 489.561 154.517C486.545 151.473 482.554 149.952 477.588 149.952C472.62 149.952 468.629 151.473 465.616 154.517C462.599 157.56 461.092 162.125 461.092 168.209V179.853C461.092 185.94 462.599 190.503 465.616 193.547C468.629 196.589 472.62 198.11 477.588 198.11ZM477.588 210.217C472.798 210.217 468.428 209.373 464.484 207.69C460.536 206.006 457.188 203.589 454.44 200.44C451.689 197.294 449.562 193.478 448.055 189C446.546 184.521 445.793 179.534 445.793 174.032C445.793 168.535 446.546 163.544 448.055 159.067C449.562 154.59 451.691 150.774 454.44 147.625C457.188 144.479 460.536 142.06 464.484 140.375C468.428 138.692 472.798 137.848 477.588 137.848C482.376 137.848 486.744 138.692 490.692 140.375C494.636 142.06 497.984 144.479 500.736 147.625C503.484 150.774 505.614 154.588 507.121 159.067C508.63 163.546 509.384 168.535 509.384 174.032C509.384 179.534 508.63 184.521 507.121 189C505.612 193.478 503.483 197.292 500.736 200.44C497.986 203.589 494.638 206.007 490.692 207.69C486.744 209.373 482.376 210.217 477.588 210.217Z" fill="white"/>
<path d="M541.578 208.62C536.522 208.62 532.708 207.314 530.135 204.697C527.561 202.081 526.277 198.377 526.277 193.588V151.284H515.502V139.445H521.356C523.751 139.445 525.412 138.912 526.344 137.848C527.275 136.784 527.741 135.054 527.741 132.661V120.554H540.778V139.446H555.279V151.286H540.778V196.782H554.216V208.622H541.578V208.62Z" fill="white"/>
<path d="M568.317 139.443H582.817V208.62H568.317V139.443ZM575.632 127.069C572.616 127.069 570.422 126.36 569.046 124.941C567.67 123.524 566.985 121.704 566.985 119.487V117.225C566.985 115.009 567.671 113.191 569.046 111.771C570.422 110.353 572.616 109.641 575.632 109.641C578.648 109.641 580.819 110.353 582.15 111.771C583.481 113.191 584.146 115.009 584.146 117.225V119.487C584.146 121.704 583.48 123.524 582.15 124.941C580.819 126.36 578.646 127.069 575.632 127.069Z" fill="white"/>
<path d="M627.649 210.217C622.681 210.217 618.248 209.373 614.344 207.689C610.442 206.006 607.161 203.588 604.5 200.44C601.84 197.292 599.798 193.477 598.381 188.998C596.96 184.521 596.253 179.532 596.253 174.032C596.253 168.533 596.962 163.544 598.381 159.066C599.8 154.588 601.841 150.774 604.5 147.625C607.163 144.477 610.442 142.06 614.344 140.375C618.246 138.69 622.679 137.846 627.649 137.846C634.566 137.846 640.241 139.399 644.676 142.503C649.11 145.608 652.346 149.732 654.388 154.875L642.414 160.464C641.437 157.27 639.731 154.722 637.294 152.814C634.853 150.908 631.639 149.953 627.649 149.953C622.327 149.953 618.315 151.61 615.609 154.929C612.902 158.246 611.552 162.557 611.552 167.862V180.2C611.552 185.507 612.902 189.819 615.609 193.136C618.315 196.453 622.327 198.11 627.649 198.11C631.906 198.11 635.298 197.069 637.826 194.985C640.353 192.903 642.37 190.129 643.879 186.67L654.92 192.524C652.613 198.223 649.154 202.597 644.542 205.644C639.93 208.692 634.299 210.217 627.647 210.217H627.649Z" fill="white"/>
<path d="M691.77 131.194L682.723 126.805L694.83 102.859L707.468 108.978L691.769 131.196L691.77 131.194ZM687.515 199.176C692.037 199.176 695.764 198.177 698.688 196.183C701.616 194.187 703.079 191.505 703.079 188.133V178.155H690.84C680.815 178.155 675.807 181.261 675.807 187.468V189.861C675.807 192.968 676.848 195.297 678.934 196.846C681.016 198.399 683.877 199.174 687.515 199.174V199.176ZM716.781 208.62C712.967 208.62 710.039 207.535 708.001 205.36C705.959 203.189 704.718 200.417 704.275 197.046H703.61C702.279 201.393 699.84 204.676 696.295 206.892C692.745 209.108 688.445 210.217 683.39 210.217C676.206 210.217 670.685 208.355 666.827 204.63C662.969 200.906 661.04 195.895 661.04 189.598C661.04 182.68 663.545 177.491 668.555 174.032C673.567 170.573 680.907 168.844 690.573 168.844H703.079V162.99C703.079 158.733 701.925 155.454 699.62 153.145C697.313 150.84 693.721 149.686 688.844 149.686C684.765 149.686 681.438 150.574 678.867 152.347C676.293 154.121 674.121 156.382 672.348 159.131L663.7 151.281C666.006 147.379 669.243 144.165 673.412 141.638C677.58 139.109 683.034 137.846 689.774 137.846C698.732 137.846 705.606 139.932 710.396 144.099C715.186 148.269 717.581 154.256 717.581 162.059V196.781H724.896V208.62H716.781Z" fill="white"/>
<path d="M736.47 208.62V139.443H750.97V152.746H751.637C752.611 149.201 754.651 146.094 757.756 143.433C760.86 140.773 765.161 139.443 770.66 139.443H774.518V153.411H768.797C763.032 153.411 758.62 154.342 755.56 156.205C752.5 158.067 750.969 160.817 750.969 164.454V208.62H736.469H736.47Z" fill="white"/>
<path d="M784.762 139.443H799.262V208.62H784.762V139.443ZM792.077 127.069C789.063 127.069 786.867 126.36 785.492 124.941C784.117 123.524 783.431 121.704 783.431 119.487V117.225C783.431 115.009 784.119 113.191 785.492 111.771C786.867 110.353 789.063 109.641 792.077 109.641C795.093 109.641 797.267 110.353 798.598 111.771C799.929 113.191 800.592 115.009 800.592 117.225V119.487C800.592 121.704 799.927 123.524 798.598 124.941C797.267 126.36 795.093 127.069 792.077 127.069Z" fill="white"/>
<path d="M844.493 198.11C849.459 198.11 853.451 196.589 856.466 193.547C859.481 190.503 860.989 185.94 860.989 179.853V168.209C860.989 162.125 859.481 157.56 856.466 154.517C853.451 151.473 849.459 149.952 844.493 149.952C839.526 149.952 835.534 151.473 832.522 154.517C829.504 157.56 827.997 162.125 827.997 168.209V179.853C827.997 185.94 829.504 190.503 832.522 193.547C835.536 196.589 839.526 198.11 844.493 198.11ZM844.493 210.217C839.703 210.217 835.335 209.373 831.389 207.69C827.442 206.006 824.094 203.589 821.345 200.44C818.597 197.294 816.467 193.478 814.96 189C813.45 184.521 812.699 179.534 812.699 174.032C812.699 168.535 813.45 163.544 814.96 159.067C816.467 154.59 818.597 150.774 821.345 147.625C824.094 144.479 827.442 142.06 831.389 140.375C835.335 138.692 839.703 137.848 844.493 137.848C849.283 137.848 853.651 138.692 857.597 140.375C861.543 142.06 864.891 144.479 867.641 147.625C870.39 150.774 872.518 154.588 874.026 159.067C875.535 163.546 876.289 168.535 876.289 174.032C876.289 179.534 875.535 184.521 874.026 189C872.518 193.478 870.39 197.292 867.641 200.44C864.891 203.589 861.543 206.007 857.597 207.69C853.651 209.373 849.283 210.217 844.493 210.217Z" fill="white"/>
</svg>
